<svg width="440" height="326" xmlns="http://www.w3.org/2000/svg" xmlns:xlink="http://www.w3.org/1999/xlink" xml:space="preserve" overflow="hidden"><defs><clipPath id="clip0"><path d="M1746.03 1985.77 1973.58 2078.15 1881.2 2305.7 1653.65 2213.32Z" fill-rule="nonzero" clip-rule="nonzero"/></clipPath><clipPath id="clip1"><path d="M1746.03 1985.77 1973.58 2078.15 1881.2 2305.7 1653.65 2213.32Z" fill-rule="evenodd" clip-rule="evenodd"/></clipPath><clipPath id="clip2"><path d="M1746.03 1985.77 1973.58 2078.15 1881.2 2305.7 1653.65 2213.32Z" fill-rule="evenodd" clip-rule="evenodd"/></clipPath></defs><g transform="translate(-1650 -1984)"><g><g clip-path="url(#clip0)"><g clip-path="url(#clip1)"><g clip-path="url(#clip2)"><path d="M1752.02 2186.19 1741.49 2196.61C1741.25 2196.47 1741 2196.33 1740.75 2196.22 1736.82 2194.62 1732.33 2196.5 1730.73 2200.43 1729.13 2204.36 1731.02 2208.85 1734.95 2210.45 1738.88 2212.05 1743.36 2210.16 1744.96 2206.23 1745.73 2204.36 1745.72 2202.26 1744.94 2200.39L1758.46 2187.02C1756.28 2186.76 1754.13 2186.48 1752.02 2186.19Z" fill="#000000" fill-rule="nonzero" fill-opacity="1"/><path d="M1893.49 2196.45C1891.6 2195.75 1889.5 2195.82 1887.67 2196.66L1875.98 2185.57C1873.85 2185.89 1871.69 2186.19 1869.5 2186.48L1884 2200.23C1882.12 2204.02 1883.66 2208.61 1887.45 2210.49 1891.24 2212.37 1895.83 2210.83 1897.71 2207.04 1899.59 2203.25 1898.04 2198.66 1894.26 2196.78 1894.01 2196.66 1893.75 2196.54 1893.49 2196.45Z" fill="#000000" fill-rule="nonzero" fill-opacity="1"/><path d="M1938.48 2148.21C1938.44 2128.27 1900.17 2119.31 1867.35 2115.28 1856.1 2085.88 1823.14 2071.17 1793.74 2082.43 1778.72 2088.18 1766.83 2100 1761 2114.98 1749.59 2116.25 1738.27 2118.22 1727.1 2120.87 1699.86 2127.56 1686.64 2136.67 1686.67 2148.75 1686.68 2157.43 1693.89 2164.75 1708.09 2170.52 1714.31 2172.96 1720.7 2174.94 1727.22 2176.45 1750.14 2181.97 1780.48 2184.98 1812.65 2184.91 1844.82 2184.84 1875.15 2181.71 1898.05 2176.09 1925.28 2169.4 1938.51 2160.28 1938.48 2148.21ZM1813.99 2083.78C1842.65 2083.72 1865.93 2106.9 1865.99 2135.56 1866 2139.79 1863.07 2143.73 1857.51 2146.96 1839.88 2157.18 1797.79 2158.48 1775.61 2149.48 1773.94 2148.81 1772.31 2148.03 1770.75 2147.14 1765.17 2143.94 1762.22 2140.01 1762.21 2135.78 1762.18 2107.13 1785.35 2083.87 1813.99 2083.78ZM1896.83 2171.12C1874.32 2176.64 1844.42 2179.72 1812.64 2179.79 1780.87 2179.86 1750.95 2176.91 1728.41 2171.48 1704.37 2165.68 1691.8 2157.83 1691.78 2148.73 1691.76 2139.63 1704.39 2131.71 1728.32 2125.84 1738.5 2123.42 1748.81 2121.59 1759.2 2120.36 1757.79 2125.38 1757.08 2130.57 1757.09 2135.79 1757.1 2140.09 1759.04 2146.31 1768.2 2151.58 1769.97 2152.58 1771.8 2153.46 1773.68 2154.22 1797.44 2163.86 1841.04 2162.43 1860.07 2151.38 1869.21 2146.08 1871.12 2139.84 1871.11 2135.55 1871.09 2130.53 1870.41 2125.53 1869.09 2120.69 1909.93 2125.96 1933.34 2135.92 1933.37 2148.22 1933.39 2157.33 1920.75 2165.24 1896.83 2171.12Z" fill="#000000" fill-rule="nonzero" fill-opacity="1"/><path d="M1706.51 2145.18C1703.03 2144.81 1700.04 2146.09 1699.84 2148.04 1699.63 2149.99 1702.29 2151.87 1705.77 2152.23 1709.24 2152.6 1712.23 2151.32 1712.44 2149.37 1712.64 2147.42 1709.99 2145.55 1706.51 2145.18Z" fill="#000000" fill-rule="nonzero" fill-opacity="1"/><path d="M1814.25 2167.17C1810.76 2167.04 1807.86 2168.52 1807.79 2170.47 1807.71 2172.43 1810.48 2174.13 1813.98 2174.26 1817.47 2174.4 1820.37 2172.92 1820.45 2170.96 1820.52 2169.01 1817.75 2167.31 1814.25 2167.17Z" fill="#000000" fill-rule="nonzero" fill-opacity="1"/><path d="M1919.83 2143.38C1916.35 2143.01 1913.37 2144.29 1913.16 2146.24 1912.95 2148.19 1915.61 2150.07 1919.09 2150.44 1922.57 2150.8 1925.55 2149.52 1925.76 2147.57 1925.97 2145.62 1923.31 2143.75 1919.83 2143.38Z" fill="#000000" fill-rule="nonzero" fill-opacity="1"/><path d="M1777.96 2120.55C1778.02 2120.57 1778.07 2120.6 1778.13 2120.62 1779.37 2121.12 1780.8 2120.58 1781.39 2119.37 1784.6 2112.81 1789.46 2107.21 1795.5 2103.11 1796.67 2102.31 1796.97 2100.72 1796.18 2099.55 1795.38 2098.38 1793.79 2098.08 1792.62 2098.87 1785.85 2103.48 1780.39 2109.77 1776.79 2117.12 1776.17 2118.39 1776.7 2119.92 1777.96 2120.55Z" fill="#000000" fill-rule="nonzero" fill-opacity="1"/></g></g></g><path d="M1683.5 2144.5C1683.5 2073.26 1741.03 2015.5 1812 2015.5 1882.97 2015.5 1940.5 2073.26 1940.5 2144.5 1940.5 2215.74 1882.97 2273.5 1812 2273.5 1741.03 2273.5 1683.5 2215.74 1683.5 2144.5Z" stroke="#E97132" stroke-width="6.875" stroke-linecap="butt" stroke-linejoin="miter" stroke-miterlimit="8" stroke-opacity="1" fill="none" fill-rule="evenodd"/><text fill="#E97132" fill-opacity="1" font-family="Cambria Math,Cambria Math_MSFontService,sans-serif" font-style="normal" font-variant="normal" font-weight="400" font-stretch="normal" font-size="46" text-anchor="start" direction="ltr" writing-mode="lr-tb" unicode-bidi="normal" text-decoration="none" transform="matrix(1 0 0 1 1952.85 2224)">∅</text><text fill="#E97132" fill-opacity="1" font-family="Cambria Math,Cambria Math_MSFontService,sans-serif" font-style="normal" font-variant="normal" font-weight="400" font-stretch="normal" font-size="46" text-anchor="start" direction="ltr" writing-mode="lr-tb" unicode-bidi="normal" text-decoration="none" transform="matrix(1 0 0 1 1981.49 2224)">5</text><text fill="#E97132" fill-opacity="1" font-family="CMU Sans Serif,CMU Sans Serif_MSFontService,sans-serif" font-style="normal" font-variant="normal" font-weight="500" font-stretch="normal" font-size="46" text-anchor="start" direction="ltr" writing-mode="lr-tb" unicode-bidi="normal" text-decoration="none" transform="matrix(1 0 0 1 2006.7 2224)">m</text></g></g></svg>