<svg width="408" height="449" xmlns="http://www.w3.org/2000/svg" xmlns:xlink="http://www.w3.org/1999/xlink" xml:space="preserve" overflow="hidden"><defs><clipPath id="clip0"><path d="M1219.46 1982.44 1446.97 2074.81 1354.61 2302.33 1127.09 2209.96Z" fill-rule="nonzero" clip-rule="nonzero"/></clipPath><clipPath id="clip1"><path d="M1219.46 1982.44 1446.97 2074.81 1354.61 2302.33 1127.09 2209.96Z" fill-rule="evenodd" clip-rule="evenodd"/></clipPath><clipPath id="clip2"><path d="M1219.46 1982.44 1446.97 2074.81 1354.61 2302.33 1127.09 2209.96Z" fill-rule="evenodd" clip-rule="evenodd"/></clipPath></defs><g transform="translate(-1081 -1856)"><g><g clip-path="url(#clip0)"><g clip-path="url(#clip1)"><g clip-path="url(#clip2)"><path d="M1225.44 2182.83 1214.91 2193.26C1214.67 2193.11 1214.43 2192.98 1214.17 2192.86 1210.24 2191.26 1205.76 2193.15 1204.16 2197.08 1202.56 2201.01 1204.44 2205.49 1208.37 2207.09 1212.3 2208.69 1216.79 2206.81 1218.39 2202.88 1219.15 2201 1219.14 2198.9 1218.37 2197.03L1231.88 2183.66C1229.7 2183.4 1227.56 2183.13 1225.44 2182.83Z" fill="#000000" fill-rule="nonzero" fill-opacity="1"/><path d="M1366.89 2193.09C1365 2192.39 1362.91 2192.47 1361.07 2193.3L1349.38 2182.21C1347.26 2182.53 1345.1 2182.84 1342.91 2183.12L1357.4 2196.88C1355.52 2200.66 1357.07 2205.25 1360.85 2207.13 1364.64 2209.01 1369.23 2207.47 1371.11 2203.68 1372.99 2199.9 1371.44 2195.3 1367.66 2193.42 1367.41 2193.3 1367.15 2193.19 1366.89 2193.09Z" fill="#000000" fill-rule="nonzero" fill-opacity="1"/><path d="M1411.88 2144.86C1411.83 2124.93 1373.57 2115.96 1340.76 2111.94 1329.5 2082.54 1296.55 2067.84 1267.15 2079.09 1252.14 2084.84 1240.25 2096.66 1234.42 2111.64 1223.01 2112.91 1211.69 2114.88 1200.53 2117.53 1173.3 2124.21 1160.07 2133.33 1160.1 2145.4 1160.12 2154.08 1167.32 2161.4 1181.52 2167.17 1187.74 2169.61 1194.13 2171.59 1200.64 2173.1 1223.56 2178.62 1253.9 2181.62 1286.07 2181.56 1318.23 2181.49 1348.56 2178.35 1371.45 2172.73 1398.68 2166.05 1411.9 2156.93 1411.88 2144.86ZM1287.41 2080.44C1316.06 2080.38 1339.34 2103.56 1339.4 2132.21 1339.41 2136.44 1336.47 2140.38 1330.91 2143.61 1313.29 2153.83 1271.2 2155.13 1249.03 2146.13 1247.36 2145.46 1245.73 2144.68 1244.17 2143.79 1238.59 2140.59 1235.64 2136.66 1235.63 2132.43 1235.61 2103.79 1258.77 2080.53 1287.41 2080.44ZM1370.23 2167.77C1347.72 2173.29 1317.83 2176.37 1286.06 2176.44 1254.29 2176.51 1224.37 2173.55 1201.84 2168.13 1177.8 2162.33 1165.23 2154.48 1165.21 2145.39 1165.19 2136.28 1177.82 2128.37 1201.74 2122.5 1211.92 2120.08 1222.23 2118.24 1232.62 2117.01 1231.22 2122.04 1230.51 2127.23 1230.52 2132.44 1230.53 2136.74 1232.46 2142.97 1241.62 2148.23 1243.39 2149.23 1245.22 2150.12 1247.1 2150.87 1270.85 2160.51 1314.45 2159.08 1333.48 2148.03 1342.62 2142.73 1344.53 2136.5 1344.52 2132.2 1344.5 2127.18 1343.82 2122.19 1342.49 2117.34 1383.33 2122.62 1406.74 2132.57 1406.76 2144.87 1406.78 2153.98 1394.15 2161.89 1370.23 2167.77Z" fill="#000000" fill-rule="nonzero" fill-opacity="1"/><path d="M1179.94 2141.83C1176.46 2141.46 1173.47 2142.75 1173.27 2144.69 1173.06 2146.64 1175.72 2148.52 1179.2 2148.89 1182.67 2149.25 1185.66 2147.97 1185.87 2146.02 1186.07 2144.08 1183.42 2142.2 1179.94 2141.83Z" fill="#000000" fill-rule="nonzero" fill-opacity="1"/><path d="M1287.67 2163.82C1284.17 2163.69 1281.28 2165.17 1281.2 2167.12 1281.13 2169.08 1283.9 2170.78 1287.39 2170.91 1290.89 2171.05 1293.78 2169.57 1293.86 2167.61 1293.94 2165.66 1291.16 2163.96 1287.67 2163.82Z" fill="#000000" fill-rule="nonzero" fill-opacity="1"/><path d="M1393.23 2140.03C1389.75 2139.67 1386.76 2140.95 1386.56 2142.9 1386.35 2144.84 1389.01 2146.72 1392.48 2147.09 1395.96 2147.45 1398.95 2146.17 1399.16 2144.22 1399.36 2142.28 1396.71 2140.4 1393.23 2140.03Z" fill="#000000" fill-rule="nonzero" fill-opacity="1"/><path d="M1251.38 2117.2C1251.44 2117.23 1251.49 2117.25 1251.55 2117.28 1252.79 2117.78 1254.22 2117.23 1254.81 2116.03 1258.01 2109.47 1262.88 2103.87 1268.92 2099.77 1270.08 2098.97 1270.39 2097.38 1269.59 2096.21 1268.8 2095.04 1267.21 2094.74 1266.04 2095.53 1259.27 2100.14 1253.81 2106.43 1250.21 2113.78 1249.59 2115.05 1250.12 2116.58 1251.38 2117.2Z" fill="#000000" fill-rule="nonzero" fill-opacity="1"/></g></g></g><path d="M3.4375-8.84033e-06 3.43784 133.524-3.43716 133.524-3.4375 8.84033e-06ZM19.0112 107.756 0.000361277 140.346-19.0106 107.756C-19.9672 106.116-19.4133 104.012-17.7735 103.055-16.1336 102.098-14.0288 102.652-13.0722 104.292L2.96958 131.792-2.9689 131.792 13.0727 104.292C14.0293 102.652 16.1341 102.098 17.774 103.055 19.4139 104.012 19.9678 106.116 19.0112 107.756Z" fill="#156082" fill-rule="nonzero" fill-opacity="1" transform="matrix(1 0 0 -1 1179.5 2146.83)"/><path d="M3.4375-4.82905e-06 3.43785 250.091-3.43715 250.091-3.4375 4.82905e-06ZM19.0112 224.323 0.000360746 256.913-19.0106 224.323C-19.9672 222.683-19.4133 220.578-17.7734 219.621-16.1336 218.665-14.0287 219.219-13.0721 220.859L2.96959 248.359-2.96889 248.359 13.0727 220.859C14.0293 219.219 16.1342 218.665 17.774 219.621 19.4139 220.578 19.9678 222.683 19.0112 224.323Z" fill="#156082" fill-rule="nonzero" fill-opacity="1" transform="matrix(1 0 0 -1 1287.5 2168.4)"/><path d="M3.4375-8.84033e-06 3.43784 133.524-3.43716 133.524-3.4375 8.84033e-06ZM19.0112 107.756 0.000361277 140.346-19.0106 107.756C-19.9672 106.116-19.4133 104.012-17.7735 103.055-16.1336 102.098-14.0288 102.652-13.0722 104.292L2.96958 131.792-2.9689 131.792 13.0727 104.292C14.0293 102.652 16.1341 102.098 17.774 103.055 19.4139 104.012 19.9678 106.116 19.0112 107.756Z" fill="#156082" fill-rule="nonzero" fill-opacity="1" transform="matrix(1 0 0 -1 1393.5 2144.83)"/><text fill="#156082" fill-opacity="1" font-family="CMU Sans Serif,CMU Sans Serif_MSFontService,sans-serif" font-style="normal" font-variant="normal" font-weight="500" font-stretch="normal" font-size="46" text-anchor="start" direction="ltr" writing-mode="lr-tb" unicode-bidi="normal" text-decoration="none" transform="matrix(1 0 0 1 1117.53 2026)">u</text><text fill="#156082" fill-opacity="1" font-family="CMU Sans Serif,CMU Sans Serif_MSFontService,sans-serif" font-style="normal" font-variant="normal" font-weight="500" font-stretch="normal" font-size="31" text-anchor="start" direction="ltr" writing-mode="lr-tb" unicode-bidi="normal" text-decoration="none" transform="matrix(1 0 0 1 1141.02 2036)">1</text><text fill="#156082" fill-opacity="1" font-family="CMU Sans Serif,CMU Sans Serif_MSFontService,sans-serif" font-style="normal" font-variant="normal" font-weight="500" font-stretch="normal" font-size="46" text-anchor="start" direction="ltr" writing-mode="lr-tb" unicode-bidi="normal" text-decoration="none" transform="matrix(1 0 0 1 1298.99 1915)">u</text><text fill="#156082" fill-opacity="1" font-family="CMU Sans Serif,CMU Sans Serif_MSFontService,sans-serif" font-style="normal" font-variant="normal" font-weight="500" font-stretch="normal" font-size="31" text-anchor="start" direction="ltr" writing-mode="lr-tb" unicode-bidi="normal" text-decoration="none" transform="matrix(1 0 0 1 1322.48 1925)">2</text><text fill="#156082" fill-opacity="1" font-family="CMU Sans Serif,CMU Sans Serif_MSFontService,sans-serif" font-style="normal" font-variant="normal" font-weight="500" font-stretch="normal" font-size="46" text-anchor="start" direction="ltr" writing-mode="lr-tb" unicode-bidi="normal" text-decoration="none" transform="matrix(1 0 0 1 1413.2 2023)">u</text><text fill="#156082" fill-opacity="1" font-family="CMU Sans Serif,CMU Sans Serif_MSFontService,sans-serif" font-style="normal" font-variant="normal" font-weight="500" font-stretch="normal" font-size="31" text-anchor="start" direction="ltr" writing-mode="lr-tb" unicode-bidi="normal" text-decoration="none" transform="matrix(1 0 0 1 1436.69 2033)">3</text></g></g></svg>