<svg width="3689" height="1586" xmlns="http://www.w3.org/2000/svg" xmlns:xlink="http://www.w3.org/1999/xlink" xml:space="preserve" overflow="hidden"><defs><clipPath id="clip0"><path d="M962.072 1283.18 1189.59 1375.54 1097.22 1603.06 869.707 1510.69Z" fill-rule="nonzero" clip-rule="nonzero"/></clipPath><clipPath id="clip1"><path d="M962.072 1283.18 1189.59 1375.54 1097.22 1603.06 869.707 1510.69Z" fill-rule="evenodd" clip-rule="evenodd"/></clipPath><clipPath id="clip2"><path d="M962.072 1283.18 1189.59 1375.54 1097.22 1603.06 869.707 1510.69Z" fill-rule="evenodd" clip-rule="evenodd"/></clipPath><clipPath id="clip3"><path d="M3824.13 497.745 4051.65 590.109 3959.29 817.627 3731.77 725.262Z" fill-rule="nonzero" clip-rule="nonzero"/></clipPath><clipPath id="clip4"><path d="M3824.13 497.745 4051.65 590.109 3959.29 817.627 3731.77 725.262Z" fill-rule="evenodd" clip-rule="evenodd"/></clipPath><clipPath id="clip5"><path d="M3824.13 497.745 4051.65 590.109 3959.29 817.627 3731.77 725.262Z" fill-rule="evenodd" clip-rule="evenodd"/></clipPath></defs><g transform="translate(-605 -192)"><g><g clip-path="url(#clip0)"><g clip-path="url(#clip1)"><g clip-path="url(#clip2)"><path d="M968.058 1483.57 957.531 1493.99C957.291 1493.84 957.043 1493.71 956.788 1493.6 952.858 1491.99 948.374 1493.88 946.773 1497.81 945.171 1501.74 947.059 1506.23 950.989 1507.83 954.918 1509.43 959.402 1507.54 961.004 1503.61 961.768 1501.74 961.761 1499.64 960.985 1497.77L974.494 1484.4C972.317 1484.14 970.172 1483.86 968.058 1483.57Z" fill="#000000" fill-rule="nonzero" fill-opacity="1"/><path d="M1109.51 1493.83C1107.62 1493.12 1105.52 1493.2 1103.69 1494.04L1092 1482.95C1089.87 1483.27 1087.72 1483.57 1085.52 1483.86L1100.02 1497.61C1098.14 1501.39 1099.68 1505.99 1103.47 1507.87 1107.25 1509.75 1111.85 1508.2 1113.73 1504.42 1115.61 1500.63 1114.06 1496.04 1110.28 1494.16 1110.03 1494.03 1109.77 1493.92 1109.51 1493.83Z" fill="#000000" fill-rule="nonzero" fill-opacity="1"/><path d="M1154.5 1445.59C1154.45 1425.66 1116.19 1416.7 1083.37 1412.67 1072.12 1383.28 1039.17 1368.57 1009.77 1379.82 994.757 1385.57 982.869 1397.39 977.036 1412.37 965.629 1413.64 954.309 1415.61 943.142 1418.26 915.912 1424.94 902.687 1434.06 902.715 1446.13 902.734 1454.81 909.941 1462.14 924.138 1467.9 930.358 1470.34 936.749 1472.32 943.259 1473.83 966.177 1479.35 996.516 1482.36 1028.68 1482.29 1060.85 1482.22 1091.17 1479.09 1114.07 1473.47 1141.3 1466.78 1154.52 1457.66 1154.5 1445.59ZM1030.02 1381.17C1058.68 1381.11 1081.95 1404.29 1082.02 1432.95 1082.03 1437.17 1079.09 1441.12 1073.53 1444.34 1055.91 1454.57 1013.82 1455.86 991.645 1446.86 989.974 1446.2 988.35 1445.41 986.784 1444.53 981.211 1441.33 978.258 1437.4 978.249 1433.17 978.222 1404.53 1001.38 1381.27 1030.02 1381.17ZM1112.85 1468.5C1090.34 1474.03 1060.44 1477.11 1028.67 1477.17 996.902 1477.24 966.991 1474.29 944.458 1468.86 920.419 1463.07 907.851 1455.22 907.831 1446.12 907.81 1437.02 920.441 1429.1 944.36 1423.23 954.539 1420.81 964.849 1418.98 975.239 1417.75 973.832 1422.77 973.124 1427.96 973.133 1433.18 973.143 1437.47 975.076 1443.7 984.235 1448.96 986.003 1449.97 987.835 1450.85 989.721 1451.6 1013.47 1461.24 1057.06 1459.81 1076.1 1448.77 1085.24 1443.47 1087.14 1437.23 1087.13 1432.94 1087.11 1427.92 1086.43 1422.92 1085.11 1418.08 1125.94 1423.35 1149.35 1433.31 1149.38 1445.61 1149.4 1454.71 1136.77 1462.63 1112.85 1468.5Z" fill="#000000" fill-rule="nonzero" fill-opacity="1"/><path d="M922.556 1442.56C919.077 1442.2 916.09 1443.48 915.885 1445.43 915.679 1447.38 918.333 1449.25 921.812 1449.62 925.291 1449.99 928.278 1448.7 928.483 1446.76 928.689 1444.81 926.035 1442.93 922.556 1442.56Z" fill="#000000" fill-rule="nonzero" fill-opacity="1"/><path d="M1030.28 1464.56C1026.79 1464.42 1023.89 1465.9 1023.82 1467.86 1023.74 1469.81 1026.51 1471.51 1030.01 1471.65 1033.5 1471.78 1036.4 1470.3 1036.48 1468.35 1036.55 1466.39 1033.78 1464.69 1030.28 1464.56Z" fill="#000000" fill-rule="nonzero" fill-opacity="1"/><path d="M1135.85 1440.77C1132.37 1440.4 1129.38 1441.68 1129.17 1443.63 1128.97 1445.58 1131.62 1447.45 1135.1 1447.82 1138.58 1448.19 1141.57 1446.91 1141.77 1444.96 1141.98 1443.01 1139.33 1441.13 1135.85 1440.77Z" fill="#000000" fill-rule="nonzero" fill-opacity="1"/><path d="M994 1417.94C994.054 1417.96 994.109 1417.99 994.164 1418.01 995.409 1418.51 996.832 1417.97 997.421 1416.76 1000.63 1410.21 1005.49 1404.6 1011.53 1400.5 1012.7 1399.71 1013 1398.11 1012.21 1396.95 1011.42 1395.78 1009.82 1395.47 1008.66 1396.27 1001.88 1400.87 996.426 1407.16 992.825 1414.52 992.205 1415.78 992.732 1417.31 994 1417.94Z" fill="#000000" fill-rule="nonzero" fill-opacity="1"/></g></g></g><path d="M636.5 1511.5 1424.75 1511.5" stroke="#156082" stroke-width="6.875" stroke-linecap="butt" stroke-linejoin="miter" stroke-miterlimit="8" stroke-opacity="1" fill="none" fill-rule="evenodd"/><path d="M639.938 202.5 639.938 1511.34 633.063 1511.34 633.063 202.5ZM627.333 202.5C627.333 197.437 631.438 193.333 636.5 193.333 641.563 193.333 645.667 197.437 645.667 202.5 645.667 207.563 641.563 211.667 636.5 211.667 631.438 211.667 627.333 207.563 627.333 202.5ZM645.667 1511.34C645.667 1516.4 641.563 1520.5 636.5 1520.5 631.438 1520.5 627.334 1516.4 627.334 1511.34 627.334 1506.27 631.438 1502.17 636.5 1502.17 641.563 1502.17 645.667 1506.27 645.667 1511.34Z" fill="#156082" fill-rule="nonzero" fill-opacity="1"/><path d="M1423.94 979.489 1425.65 1511.79 1418.77 1511.81 1417.06 979.511ZM1411.33 979.529C1411.32 974.467 1415.41 970.349 1420.47 970.333 1425.53 970.317 1429.65 974.408 1429.67 979.47 1429.68 984.533 1425.59 988.65 1420.53 988.666 1415.47 988.683 1411.35 984.592 1411.33 979.529ZM1431.38 1511.77C1431.39 1516.83 1427.3 1520.95 1422.24 1520.96 1417.18 1520.98 1413.06 1516.89 1413.04 1511.83 1413.03 1506.76 1417.12 1502.65 1422.18 1502.63 1427.24 1502.61 1431.36 1506.71 1431.38 1511.77Z" fill="#156082" fill-rule="nonzero" fill-opacity="1"/><path d="M1943.94 979.5 1943.94 1768.7 1937.06 1768.7 1937.06 979.5ZM1931.33 979.5C1931.33 974.437 1935.44 970.333 1940.5 970.333 1945.56 970.333 1949.67 974.437 1949.67 979.5 1949.67 984.562 1945.56 988.667 1940.5 988.667 1935.44 988.667 1931.33 984.562 1931.33 979.5ZM1949.67 1768.7C1949.67 1773.76 1945.56 1777.87 1940.5 1777.87 1935.44 1777.87 1931.33 1773.76 1931.33 1768.7 1931.33 1763.64 1935.44 1759.53 1940.5 1759.53 1945.56 1759.53 1949.67 1763.64 1949.67 1768.7Z" fill="#156082" fill-rule="nonzero" fill-opacity="1"/><path d="M1421.5 979.5 1939.32 979.5" stroke="#156082" stroke-width="6.875" stroke-linecap="butt" stroke-linejoin="miter" stroke-miterlimit="8" stroke-opacity="1" fill="none" fill-rule="evenodd"/><path d="M1940.5 1768.5 3494.85 1768.5" stroke="#156082" stroke-width="6.875" stroke-linecap="butt" stroke-linejoin="miter" stroke-miterlimit="8" stroke-opacity="1" fill="none" fill-rule="evenodd"/><path d="M2720.5 202.5 2720.5 1237.88" stroke="#156082" stroke-width="6.875" stroke-linecap="butt" stroke-linejoin="miter" stroke-miterlimit="8" stroke-opacity="1" fill="none" fill-rule="evenodd"/><g clip-path="url(#clip3)"><g clip-path="url(#clip4)"><g clip-path="url(#clip5)"><path d="M3830.12 698.135 3819.59 708.556C3819.35 708.411 3819.1 708.28 3818.85 708.163 3814.92 706.562 3810.44 708.449 3808.83 712.379 3807.23 716.309 3809.12 720.793 3813.05 722.394 3816.98 723.996 3821.46 722.108 3823.06 718.178 3823.83 716.303 3823.82 714.203 3823.05 712.333L3836.55 698.963C3834.38 698.703 3832.23 698.427 3830.12 698.135Z" fill="#AEAEAE" fill-rule="nonzero" fill-opacity="1"/><path d="M3971.57 708.394C3969.68 707.692 3967.58 707.768 3965.75 708.604L3954.06 697.515C3951.93 697.835 3949.78 698.138 3947.58 698.424L3962.08 712.176C3960.2 715.962 3961.74 720.554 3965.53 722.434 3969.31 724.314 3973.91 722.769 3975.79 718.983 3977.67 715.197 3976.12 710.604 3972.34 708.725 3972.09 708.601 3971.83 708.49 3971.57 708.394Z" fill="#AEAEAE" fill-rule="nonzero" fill-opacity="1"/><path d="M4016.56 660.162C4016.51 640.227 3978.25 631.264 3945.43 627.242 3934.18 597.846 3901.23 583.138 3871.83 594.392 3856.82 600.139 3844.93 611.959 3839.1 626.939 3827.69 628.21 3816.37 630.177 3805.2 632.83 3777.97 639.511 3764.75 648.629 3764.78 660.699 3764.79 669.379 3772 676.705 3786.2 682.468 3792.42 684.91 3798.81 686.892 3805.32 688.399 3828.24 693.921 3858.58 696.925 3890.74 696.857 3922.91 696.788 3953.23 693.654 3976.13 688.036 4003.36 681.349 4016.58 672.232 4016.56 660.162ZM3892.08 595.739C3920.74 595.681 3944.01 618.86 3944.08 647.515 3944.09 651.742 3941.15 655.684 3935.59 658.91 3917.97 669.134 3875.88 670.431 3853.71 661.432 3852.03 660.763 3850.41 659.982 3848.84 659.095 3843.27 655.893 3840.32 651.963 3840.31 647.734 3840.28 619.093 3863.44 595.834 3892.08 595.739ZM3974.91 683.067C3952.4 688.593 3922.5 691.673 3890.73 691.741 3858.96 691.809 3829.05 688.855 3806.52 683.426 3782.48 677.633 3769.91 669.783 3769.89 660.688 3769.87 651.583 3782.5 643.667 3806.42 637.797 3816.6 635.376 3826.91 633.545 3837.3 632.315 3835.89 637.337 3835.18 642.529 3835.19 647.745 3835.2 652.041 3837.14 658.268 3846.3 663.531 3848.06 664.534 3849.9 665.416 3851.78 666.172 3875.53 675.81 3919.12 674.38 3938.16 663.335 3947.3 658.033 3949.2 651.799 3949.19 647.503 3949.17 642.483 3948.49 637.487 3947.17 632.644 3988 637.92 4011.41 647.875 4011.44 660.173 4011.46 669.278 3998.83 677.194 3974.91 683.067Z" fill="#AEAEAE" fill-rule="nonzero" fill-opacity="1"/><path d="M3784.62 657.132C3781.14 656.764 3778.15 658.047 3777.95 659.995 3777.74 661.943 3780.39 663.82 3783.87 664.187 3787.35 664.554 3790.34 663.272 3790.54 661.325 3790.75 659.377 3788.1 657.5 3784.62 657.132Z" fill="#AEAEAE" fill-rule="nonzero" fill-opacity="1"/><path d="M3892.34 679.124C3888.85 678.989 3885.95 680.466 3885.88 682.423 3885.8 684.38 3888.57 686.078 3892.07 686.214 3895.56 686.349 3898.46 684.872 3898.54 682.914 3898.61 680.956 3895.84 679.26 3892.34 679.124Z" fill="#AEAEAE" fill-rule="nonzero" fill-opacity="1"/><path d="M3997.91 655.333C3994.43 654.966 3991.44 656.248 3991.24 658.196 3991.03 660.144 3993.68 662.022 3997.16 662.388 4000.64 662.755 4003.63 661.474 4003.83 659.525 4004.04 657.577 4001.39 655.7 3997.91 655.333Z" fill="#AEAEAE" fill-rule="nonzero" fill-opacity="1"/><path d="M3856.06 632.503C3856.11 632.529 3856.17 632.554 3856.22 632.576 3857.47 633.08 3858.89 632.535 3859.48 631.328 3862.69 624.773 3867.55 619.168 3873.59 615.067 3874.76 614.273 3875.06 612.682 3874.27 611.514 3873.48 610.345 3871.89 610.041 3870.72 610.836 3863.94 615.438 3858.49 621.727 3854.89 629.083 3854.27 630.352 3854.79 631.882 3856.06 632.503Z" fill="#AEAEAE" fill-rule="nonzero" fill-opacity="1"/></g></g></g><path d="M2720.5 1236.06 2979.7 1236.06 2979.7 1242.94 2720.5 1242.94ZM2720.5 1248.67C2715.44 1248.67 2711.33 1244.56 2711.33 1239.5 2711.33 1234.44 2715.44 1230.33 2720.5 1230.33 2725.56 1230.33 2729.67 1234.44 2729.67 1239.5 2729.67 1244.56 2725.56 1248.67 2720.5 1248.67ZM2979.7 1230.33C2984.76 1230.33 2988.86 1234.44 2988.86 1239.5 2988.86 1244.56 2984.76 1248.67 2979.7 1248.67 2974.63 1248.67 2970.53 1244.56 2970.53 1239.5 2970.53 1234.44 2974.63 1230.33 2979.7 1230.33Z" fill="#156082" fill-rule="nonzero" fill-opacity="1"/><path d="M3.4375-2.3776e-06 3.43786 521.773-3.43714 521.773-3.4375 2.3776e-06ZM-9.16667 6.34026e-06C-9.16667-5.0626-5.06262-9.16666-6.34026e-06-9.16667 5.0626-9.16667 9.16666-5.06262 9.16667-6.34026e-06 9.16667 5.0626 5.06262 9.16666 6.34026e-06 9.16667-5.0626 9.16667-9.16666 5.06262-9.16667 6.34026e-06ZM9.16703 521.773C9.16703 526.836 5.06298 530.94 0.000367233 530.94-5.06224 530.94-9.1663 526.836-9.16631 521.773-9.16631 516.711-5.06226 512.607 0.000354552 512.607 5.06297 512.607 9.16702 516.711 9.16703 521.773Z" fill="#156082" fill-rule="nonzero" fill-opacity="1" transform="matrix(1 0 0 -1 4281.5 724.273)"/><path d="M2979.5 202.5 2979.5 1237.88" stroke="#156082" stroke-width="6.875" stroke-linecap="butt" stroke-linejoin="miter" stroke-miterlimit="8" stroke-opacity="1" fill="none" fill-rule="evenodd"/><path d="M3498.94 724.5 3498.94 1768.47 3492.06 1768.47 3492.06 724.5ZM3486.33 724.5C3486.33 719.438 3490.44 715.333 3495.5 715.333 3500.56 715.333 3504.67 719.438 3504.67 724.5 3504.67 729.563 3500.56 733.667 3495.5 733.667 3490.44 733.667 3486.33 729.563 3486.33 724.5ZM3504.67 1768.47C3504.67 1773.53 3500.56 1777.63 3495.5 1777.63 3490.44 1777.63 3486.33 1773.53 3486.33 1768.47 3486.33 1763.4 3490.44 1759.3 3495.5 1759.3 3500.56 1759.3 3504.67 1763.4 3504.67 1768.47Z" fill="#156082" fill-rule="nonzero" fill-opacity="1"/><path d="M3495.5 724.5 4282.43 724.5" stroke="#156082" stroke-width="6.875" stroke-linecap="butt" stroke-linejoin="miter" stroke-miterlimit="8" stroke-opacity="1" fill="none" fill-rule="evenodd"/><path d="M636.5 199.062 2720.57 199.063 2720.57 205.938 636.5 205.937ZM2720.57 193.334C2725.63 193.334 2729.74 197.438 2729.74 202.5 2729.74 207.563 2725.63 211.667 2720.57 211.667 2715.51 211.667 2711.4 207.563 2711.4 202.5 2711.4 197.438 2715.51 193.334 2720.57 193.334Z" fill="#156082" fill-rule="nonzero" fill-opacity="1"/><path d="M2979.5 199.062 4282.14 199.063 4282.14 205.938 2979.5 205.937ZM2979.5 211.667C2974.44 211.667 2970.33 207.563 2970.33 202.5 2970.33 197.437 2974.44 193.333 2979.5 193.333 2984.56 193.333 2988.67 197.437 2988.67 202.5 2988.67 207.563 2984.56 211.667 2979.5 211.667Z" fill="#156082" fill-rule="nonzero" fill-opacity="1"/><path d="M1027.59 1357.07C1024.85 1244.81 1085.83 894.286 1217.14 780.27 1348.44 666.254 1633.87 670.227 1815.42 672.978 1996.97 675.729 2215.65 670.915 2306.43 796.776 2397.2 922.638 2270.67 1303.66 2360.07 1428.15 2449.46 1552.63 2685.34 1545.76 2842.82 1543.69 3000.3 1541.63 3231.36 1569.83 3304.94 1415.77 3378.52 1261.71 3210.99 806.385 3284.31 619.332 3357.63 432.279 3642.41 309.458 3744.86 293.449 3847.32 277.44 3905.36 467.913 3899.03 573.766" stroke="#042433" stroke-width="4.58333" stroke-linecap="butt" stroke-linejoin="miter" stroke-miterlimit="8" stroke-dasharray="18.3333 13.75" stroke-opacity="1" fill="none" fill-rule="evenodd"/><path d="M659.417 1604.06 884.248 1604.06 884.248 1610.94 659.417 1610.94ZM664 1621.25 636.5 1607.5 664 1593.75ZM879.665 1593.75 907.165 1607.5 879.665 1621.25Z" fill="#156082" fill-rule="nonzero" fill-opacity="1"/><text fill="#156082" fill-opacity="1" font-family="CMU Sans Serif,CMU Sans Serif_MSFontService,sans-serif" font-style="normal" font-variant="normal" font-weight="500" font-stretch="normal" font-size="46" text-anchor="start" direction="ltr" writing-mode="lr-tb" unicode-bidi="normal" text-decoration="none" transform="matrix(1 0 0 1 730.905 1592)">5m</text></g></g></svg>